<?xml version="1.0" encoding="utf-8"?><svg xmlns="http://www.w3.org/2000/svg" xmlns:xlink="http://www.w3.org/1999/xlink"><symbol viewBox="0 0 12 8" id="arrow-down" xmlns="http://www.w3.org/2000/svg"><path d="M1.41 0.296875L6 4.87687L10.59 0.296875L12 1.70687L6 7.70687L0 1.70687L1.41 0.296875Z"/></symbol><symbol viewBox="0 0 16 20" id="bag" xmlns="http://www.w3.org/2000/svg"><path d="M14 4H12C12 1.79 10.21 0 8 0C5.79 0 4 1.79 4 4H2C0.9 4 0 4.9 0 6V18C0 19.1 0.9 20 2 20H14C15.1 20 16 19.1 16 18V6C16 4.9 15.1 4 14 4ZM8 2C9.1 2 10 2.9 10 4H6C6 2.9 6.9 2 8 2ZM14 18H2V6H4V8C4 8.55 4.45 9 5 9C5.55 9 6 8.55 6 8V6H10V8C10 8.55 10.45 9 11 9C11.55 9 12 8.55 12 8V6H14V18Z"/></symbol><symbol viewBox="0 0 25 24" id="close-mobile" xmlns="http://www.w3.org/2000/svg"><path d="M3.5 18H21.5V16H3.5V18ZM3.5 13H21.5V11H3.5V13ZM3.5 6V8H21.5V6H3.5Z"/></symbol><symbol viewBox="0 0 20 20" id="favorite" xmlns="http://www.w3.org/2000/svg"><path d="M14.5 1.82422C17.0277 1.82422 19 3.7965 19 6.32422C19 7.88575 18.3066 9.38092 16.8818 11.124C15.4459 12.8807 13.3736 14.7645 10.7793 17.1221L10.002 17.8232L9.22363 17.1143L9.22168 17.1133L7.375 15.4316C5.62989 13.8272 4.1952 12.4388 3.11816 11.1221C1.69361 9.38042 1 7.88574 1 6.32422C1 3.7965 2.97228 1.82422 5.5 1.82422C6.93712 1.82422 8.33187 2.49822 9.23828 3.5625L10 4.45703L10.7617 3.5625C11.6681 2.49822 13.0629 1.82422 14.5 1.82422Z" stroke-width="2"/></symbol><symbol viewBox="0 0 25 24" id="menu" xmlns="http://www.w3.org/2000/svg"><path d="M3.5 18H21.5V16H3.5V18ZM3.5 13H21.5V11H3.5V13ZM3.5 6V8H21.5V6H3.5Z"/></symbol><symbol viewBox="0 0 24 24" id="person" xmlns="http://www.w3.org/2000/svg"><path d="M18.39 15.06C16.71 14.2 14.53 13.5 12 13.5C9.47 13.5 7.29 14.2 5.61 15.06C4.61 15.57 4 16.6 4 17.72V20.5H20V17.72C20 16.6 19.39 15.57 18.39 15.06ZM18 18.5H6V17.72C6 17.34 6.2 17 6.52 16.84C7.71 16.23 9.63 15.5 12 15.5C14.37 15.5 16.29 16.23 17.48 16.84C17.8 17 18 17.34 18 17.72V18.5Z"/><path d="M12 12.5C14.21 12.5 16 10.71 16 8.5C16 7.13 16 5 16 5C16 4.17 15.33 3.5 14.5 3.5C13.98 3.5 13.52 3.77 13.25 4.17C12.98 3.77 12.52 3.5 12 3.5C11.48 3.5 11.02 3.77 10.75 4.17C10.48 3.77 10.02 3.5 9.5 3.5C8.67 3.5 8 4.17 8 5C8 5 8 7.12 8 8.5C8 10.71 9.79 12.5 12 12.5ZM10 6H14V8.5C14 9.6 13.1 10.5 12 10.5C10.9 10.5 10 9.6 10 8.5V6Z"/></symbol><symbol viewBox="0 0 18 18" id="search" xmlns="http://www.w3.org/2000/svg"><path d="M12.7549 11.2539H11.9649L11.6849 10.9839C12.6649 9.84391 13.2549 8.36391 13.2549 6.75391C13.2549 3.16391 10.3449 0.253906 6.75488 0.253906C3.16488 0.253906 0.254883 3.16391 0.254883 6.75391C0.254883 10.3439 3.16488 13.2539 6.75488 13.2539C8.36488 13.2539 9.84488 12.6639 10.9849 11.6839L11.2549 11.9639V12.7539L16.2549 17.7439L17.7449 16.2539L12.7549 11.2539ZM6.75488 11.2539C4.26488 11.2539 2.25488 9.24391 2.25488 6.75391C2.25488 4.26391 4.26488 2.25391 6.75488 2.25391C9.24488 2.25391 11.2549 4.26391 11.2549 6.75391C11.2549 9.24391 9.24488 11.2539 6.75488 11.2539Z"/></symbol></svg>