<svg width="20" height="20" viewBox="0 0 20 20" fill="none" xmlns="http://www.w3.org/2000/svg">
<path d="M14.5 1.82422C17.0277 1.82422 19 3.7965 19 6.32422C19 7.88575 18.3066 9.38092 16.8818 11.124C15.4459 12.8807 13.3736 14.7645 10.7793 17.1221L10.002 17.8232L9.22363 17.1143L9.22168 17.1133L7.375 15.4316C5.62989 13.8272 4.1952 12.4388 3.11816 11.1221C1.69361 9.38042 1 7.88574 1 6.32422C1 3.7965 2.97228 1.82422 5.5 1.82422C6.93712 1.82422 8.33187 2.49822 9.23828 3.5625L10 4.45703L10.7617 3.5625C11.6681 2.49822 13.0629 1.82422 14.5 1.82422Z" fill="white" stroke="#202020" stroke-width="2"/>
</svg>
